<svg viewBox="0 0 560 400" xmlns="http://www.w3.org/2000/svg">
<rect width="560" height="400" fill="#ffffff"/>

<text x="20" y="28" font-family="sans-serif" font-size="18" font-weight="bold" fill="#1c2b36">大気の気温の鉛直分布と、極大・極小の原因</text>

<text x="28" y="48" font-family="sans-serif" font-size="11" fill="#5a6b78">高度 km</text>
<line x1="90" y1="50" x2="90" y2="344" stroke="#1c2b36" stroke-width="1.5"/>
<line x1="90" y1="344" x2="505" y2="344" stroke="#1c2b36" stroke-width="1.5"/>

<line x1="84" y1="344" x2="90" y2="344" stroke="#5a6b78" stroke-width="1.5"/>
<line x1="84" y1="296" x2="90" y2="296" stroke="#5a6b78" stroke-width="1.5"/>
<line x1="84" y1="249" x2="90" y2="249" stroke="#5a6b78" stroke-width="1.5"/>
<line x1="84" y1="201" x2="90" y2="201" stroke="#5a6b78" stroke-width="1.5"/>
<line x1="84" y1="153" x2="90" y2="153" stroke="#5a6b78" stroke-width="1.5"/>
<line x1="84" y1="106" x2="90" y2="106" stroke="#5a6b78" stroke-width="1.5"/>
<line x1="84" y1="58" x2="90" y2="58" stroke="#5a6b78" stroke-width="1.5"/>
<text x="80" y="348" font-family="sans-serif" font-size="11" fill="#5a6b78" text-anchor="end">0</text>
<text x="80" y="300" font-family="sans-serif" font-size="11" fill="#5a6b78" text-anchor="end">20</text>
<text x="80" y="253" font-family="sans-serif" font-size="11" fill="#5a6b78" text-anchor="end">40</text>
<text x="80" y="205" font-family="sans-serif" font-size="11" fill="#5a6b78" text-anchor="end">60</text>
<text x="80" y="157" font-family="sans-serif" font-size="11" fill="#5a6b78" text-anchor="end">80</text>
<text x="80" y="110" font-family="sans-serif" font-size="11" fill="#5a6b78" text-anchor="end">100</text>
<text x="80" y="62" font-family="sans-serif" font-size="11" fill="#5a6b78" text-anchor="end">120</text>

<line x1="154" y1="344" x2="154" y2="349" stroke="#5a6b78" stroke-width="1.5"/>
<line x1="231" y1="344" x2="231" y2="349" stroke="#5a6b78" stroke-width="1.5"/>
<line x1="308" y1="344" x2="308" y2="349" stroke="#5a6b78" stroke-width="1.5"/>
<line x1="385" y1="344" x2="385" y2="349" stroke="#5a6b78" stroke-width="1.5"/>
<line x1="463" y1="344" x2="463" y2="349" stroke="#5a6b78" stroke-width="1.5"/>
<text x="154" y="362" font-family="sans-serif" font-size="11" fill="#5a6b78" text-anchor="middle">180</text>
<text x="231" y="362" font-family="sans-serif" font-size="11" fill="#5a6b78" text-anchor="middle">210</text>
<text x="308" y="362" font-family="sans-serif" font-size="11" fill="#5a6b78" text-anchor="middle">240</text>
<text x="385" y="362" font-family="sans-serif" font-size="11" fill="#5a6b78" text-anchor="middle">270</text>
<text x="463" y="362" font-family="sans-serif" font-size="11" fill="#5a6b78" text-anchor="middle">300</text>
<text x="308" y="382" font-family="sans-serif" font-size="13" fill="#1c2b36" text-anchor="middle">気温（K）</text>

<line x1="92" y1="315" x2="290" y2="315" stroke="#5a6b78" stroke-width="1.2" stroke-dasharray="7 5"/>
<line x1="92" y1="225" x2="380" y2="225" stroke="#5a6b78" stroke-width="1.2" stroke-dasharray="7 5"/>
<line x1="92" y1="130" x2="290" y2="130" stroke="#5a6b78" stroke-width="1.2" stroke-dasharray="7 5"/>

<polyline points="437,344 334,330 231,315 237,296 283,268 347,244 385,225 347,201 257,172 180,149 154,130 193,106 308,82 411,63" fill="none" stroke="#1c2b36" stroke-width="3"/>

<circle cx="231" cy="315" r="4.5" fill="#f2a73b"/>
<circle cx="385" cy="225" r="4.5" fill="#f2a73b"/>
<circle cx="154" cy="130" r="4.5" fill="#f2a73b"/>

<text x="100" y="336" font-family="sans-serif" font-size="13" fill="#5a6b78">対流圏</text>
<text x="100" y="275" font-family="sans-serif" font-size="13" fill="#5a6b78">成層圏</text>
<text x="100" y="180" font-family="sans-serif" font-size="13" fill="#5a6b78">中間圏</text>
<text x="100" y="95" font-family="sans-serif" font-size="13" fill="#5a6b78">熱圏</text>

<text x="150" y="308" font-family="sans-serif" font-size="13" fill="#1c2b36">対流圏界面</text>
<text x="150" y="218" font-family="sans-serif" font-size="13" fill="#1c2b36">成層圏界面</text>
<text x="212" y="122" font-family="sans-serif" font-size="13" fill="#1c2b36">中間圏界面</text>

<text x="300" y="286" font-family="sans-serif" font-size="13" fill="#5a6b78">断熱膨張と放射で冷却</text>
<text x="300" y="306" font-family="sans-serif" font-size="13" fill="#5a6b78">（熱帯では高度15〜20 km）</text>
<text x="400" y="220" font-family="sans-serif" font-size="13" fill="#f2a73b">オゾンが紫外線を</text>
<text x="400" y="242" font-family="sans-serif" font-size="13" fill="#f2a73b">吸収して加熱</text>
<text x="272" y="150" font-family="sans-serif" font-size="13" fill="#2569a8">上昇流の断熱膨張で</text>
<text x="272" y="170" font-family="sans-serif" font-size="13" fill="#2569a8">最も低温（夏半球側）</text>
</svg>
