<svg viewBox="0 0 560 436" xmlns="http://www.w3.org/2000/svg">
<rect width="560" height="436" fill="#ffffff"/>
<path d="M70.0,150.0 L70.0,40.0 L140.1,40.0 L143.2,40.3 L144.8,41.3 L145.7,43.1 L146.5,46.2 L147.8,58.9 L150.7,122.6 L151.8,138.8 L152.6,144.2 L153.6,147.6 L154.9,149.3 L156.8,149.9 L171.4,149.7 L173.9,148.9 L178.9,146.1 L181.6,145.0 L186.2,144.5 L196.3,144.7 L197.1,144.3 L198.4,142.2 L200.0,142.6 L201.3,141.6 L202.8,143.3 L203.4,140.4 L204.5,120.6 L205.1,116.4 L206.7,141.9 L207.0,145.7 L207.6,147.6 L210.1,144.5 L210.9,145.1 L212.8,148.7 L213.6,149.2 L214.3,149.1 L215.9,146.8 L218.3,139.9 L219.3,139.0 L220.3,140.2 L223.0,147.5 L223.9,148.6 L224.7,148.7 L226.0,146.9 L228.5,138.6 L229.7,136.8 L230.6,138.0 L232.9,145.8 L234.3,148.6 L236.0,149.8 L239.0,149.7 L239.8,148.8 L240.6,146.2 L243.3,129.7 L244.0,128.2 L245.0,128.0 L245.8,128.5 L246.5,130.6 L248.8,145.4 L250.0,149.2 L251.3,150.0 L259.0,149.9 L259.9,149.0 L260.7,146.7 L263.4,130.1 L264.2,128.3 L265.1,128.0 L265.9,128.3 L266.6,130.2 L269.1,145.9 L270.3,149.3 L272.0,150.0 L281.4,150.0 L282.6,149.7 L283.7,146.6 L284.5,139.3 L287.5,67.5 L288.3,59.0 L288.9,56.8 L289.5,56.5 L290.0,56.8 L290.6,58.8 L291.4,66.9 L294.1,131.1 L294.6,139.4 L295.4,144.5 L295.8,145.2 L296.4,145.0 L299.2,140.1 L300.2,139.2 L301.0,139.0 L302.5,140.3 L305.9,146.6 L308.0,148.9 L310.9,149.9 L316.9,149.9 L317.4,147.1 L317.8,136.7 L319.2,52.8 L319.5,43.3 L319.9,40.4 L320.3,40.0 L320.9,40.2 L321.1,40.7 L321.7,49.2 L323.0,129.1 L323.6,143.9 L324.0,144.8 L326.4,140.0 L327.4,139.1 L328.2,139.1 L329.5,140.6 L333.2,147.6 L334.5,149.0 L336.0,149.7 L337.9,149.6 L339.1,148.7 L340.1,146.4 L340.8,142.9 L342.2,131.0 L344.9,94.6 L345.4,90.4 L346.0,89.0 L346.8,91.9 L348.7,108.5 L349.5,110.8 L350.4,106.6 L352.1,91.4 L352.7,89.1 L353.1,89.3 L354.1,95.5 L356.2,122.9 L357.1,129.9 L357.7,130.7 L358.8,129.1 L359.2,129.1 L361.3,135.6 L361.9,134.9 L363.1,131.2 L363.6,131.2 L366.3,146.6 L367.1,148.4 L367.7,148.4 L368.0,147.9 L369.2,142.9 L370.1,132.7 L372.8,77.9 L373.4,70.1 L374.0,67.5 L374.6,70.8 L375.1,79.2 L377.6,131.0 L379.2,145.6 L380.1,148.7 L381.5,149.8 L388.6,149.9 L389.7,149.5 L390.5,148.6 L391.8,143.7 L393.2,131.2 L396.6,73.3 L398.1,54.0 L399.9,43.3 L400.8,41.0 L402.0,40.1 L405.0,40.1 L406.4,40.9 L407.5,43.5 L408.5,48.2 L410.4,68.2 L414.6,135.9 L416.1,146.3 L416.9,148.3 L418.1,149.3 L427.6,148.7 L437.0,147.1 L444.1,144.6 L450.5,140.9 L455.2,136.8 L460.2,131.4 L474.8,111.7 L480.2,105.3 L485.9,99.9 L491.9,95.9 L498.6,93.1 L506.4,91.3 L516.2,90.2 L530.0,89.7 L530.0,150.0 Z" fill="#2569a8" stroke="none" stroke-width="0" stroke-linejoin="round" stroke-linecap="round" fill-opacity="0.13"/>
<path d="M70.0,40.0 L140.1,40.0 L143.2,40.3 L144.8,41.3 L145.7,43.1 L146.5,46.2 L147.8,58.9 L150.7,122.6 L151.8,138.8 L152.6,144.2 L153.6,147.6 L154.9,149.3 L156.8,149.9 L171.4,149.7 L173.9,148.9 L178.9,146.1 L181.6,145.0 L186.2,144.5 L196.3,144.7 L197.1,144.3 L198.4,142.2 L200.0,142.6 L201.3,141.6 L202.8,143.3 L203.4,140.4 L204.5,120.6 L205.1,116.4 L206.7,141.9 L207.0,145.7 L207.6,147.6 L210.1,144.5 L210.9,145.1 L212.8,148.7 L213.6,149.2 L214.3,149.1 L215.9,146.8 L218.3,139.9 L219.3,139.0 L220.3,140.2 L223.0,147.5 L223.9,148.6 L224.7,148.7 L226.0,146.9 L228.5,138.6 L229.7,136.8 L230.6,138.0 L232.9,145.8 L234.3,148.6 L236.0,149.8 L239.0,149.7 L239.8,148.8 L240.6,146.2 L243.3,129.7 L244.0,128.2 L245.0,128.0 L245.8,128.5 L246.5,130.6 L248.8,145.4 L250.0,149.2 L251.3,150.0 L259.0,149.9 L259.9,149.0 L260.7,146.7 L263.4,130.1 L264.2,128.3 L265.1,128.0 L265.9,128.3 L266.6,130.2 L269.1,145.9 L270.3,149.3 L272.0,150.0 L281.4,150.0 L282.6,149.7 L283.7,146.6 L284.5,139.3 L287.5,67.5 L288.3,59.0 L288.9,56.8 L289.5,56.5 L290.0,56.8 L290.6,58.8 L291.4,66.9 L294.1,131.1 L294.6,139.4 L295.4,144.5 L295.8,145.2 L296.4,145.0 L299.2,140.1 L300.2,139.2 L301.0,139.0 L302.5,140.3 L305.9,146.6 L308.0,148.9 L310.9,149.9 L316.9,149.9 L317.4,147.1 L317.8,136.7 L319.2,52.8 L319.5,43.3 L319.9,40.4 L320.3,40.0 L320.9,40.2 L321.1,40.7 L321.7,49.2 L323.0,129.1 L323.6,143.9 L324.0,144.8 L326.4,140.0 L327.4,139.1 L328.2,139.1 L329.5,140.6 L333.2,147.6 L334.5,149.0 L336.0,149.7 L337.9,149.6 L339.1,148.7 L340.1,146.4 L340.8,142.9 L342.2,131.0 L344.9,94.6 L345.4,90.4 L346.0,89.0 L346.8,91.9 L348.7,108.5 L349.5,110.8 L350.4,106.6 L352.1,91.4 L352.7,89.1 L353.1,89.3 L354.1,95.5 L356.2,122.9 L357.1,129.9 L357.7,130.7 L358.8,129.1 L359.2,129.1 L361.3,135.6 L361.9,134.9 L363.1,131.2 L363.6,131.2 L366.3,146.6 L367.1,148.4 L367.7,148.4 L368.0,147.9 L369.2,142.9 L370.1,132.7 L372.8,77.9 L373.4,70.1 L374.0,67.5 L374.6,70.8 L375.1,79.2 L377.6,131.0 L379.2,145.6 L380.1,148.7 L381.5,149.8 L388.6,149.9 L389.7,149.5 L390.5,148.6 L391.8,143.7 L393.2,131.2 L396.6,73.3 L398.1,54.0 L399.9,43.3 L400.8,41.0 L402.0,40.1 L405.0,40.1 L406.4,40.9 L407.5,43.5 L408.5,48.2 L410.4,68.2 L414.6,135.9 L416.1,146.3 L416.9,148.3 L418.1,149.3 L427.6,148.7 L437.0,147.1 L444.1,144.6 L450.5,140.9 L455.2,136.8 L460.2,131.4 L474.8,111.7 L480.2,105.3 L485.9,99.9 L491.9,95.9 L498.6,93.1 L506.4,91.3 L516.2,90.2 L530.0,89.7" fill="none" stroke="#1c2b36" stroke-width="1.4" stroke-linejoin="round" stroke-linecap="round"/>
<rect x="70" y="40" width="460" height="110" fill="none" stroke="#1c2b36" stroke-width="1.1"/>
<line x1="66.0" y1="150.0" x2="70.0" y2="150.0" stroke="#1c2b36" stroke-width="1"/>
<text x="63.0" y="153.5" font-family="sans-serif" font-size="10" fill="#1c2b36" text-anchor="end">0</text>
<line x1="66.0" y1="128.0" x2="70.0" y2="128.0" stroke="#1c2b36" stroke-width="1"/>
<text x="63.0" y="131.5" font-family="sans-serif" font-size="10" fill="#1c2b36" text-anchor="end">20</text>
<line x1="66.0" y1="106.0" x2="70.0" y2="106.0" stroke="#1c2b36" stroke-width="1"/>
<text x="63.0" y="109.5" font-family="sans-serif" font-size="10" fill="#1c2b36" text-anchor="end">40</text>
<line x1="66.0" y1="84.0" x2="70.0" y2="84.0" stroke="#1c2b36" stroke-width="1"/>
<text x="63.0" y="87.5" font-family="sans-serif" font-size="10" fill="#1c2b36" text-anchor="end">60</text>
<line x1="66.0" y1="62.0" x2="70.0" y2="62.0" stroke="#1c2b36" stroke-width="1"/>
<text x="63.0" y="65.5" font-family="sans-serif" font-size="10" fill="#1c2b36" text-anchor="end">80</text>
<line x1="66.0" y1="40.0" x2="70.0" y2="40.0" stroke="#1c2b36" stroke-width="1"/>
<text x="63.0" y="43.5" font-family="sans-serif" font-size="10" fill="#1c2b36" text-anchor="end">100</text>
<text x="30.0" y="95.0" font-family="sans-serif" font-size="11" fill="#1c2b36" text-anchor="middle" transform="rotate(-90 30.0 95.0)">吸収率 (%)</text>
<text x="70.0" y="31.0" font-family="sans-serif" font-size="14" fill="#1c2b36" font-weight="bold">図A</text>
<line x1="70.0" y1="150.0" x2="70.0" y2="146.0" stroke="#1c2b36" stroke-width="0.8"/>
<line x1="97.0" y1="150.0" x2="97.0" y2="146.0" stroke="#1c2b36" stroke-width="0.8"/>
<line x1="116.2" y1="150.0" x2="116.2" y2="146.0" stroke="#1c2b36" stroke-width="0.8"/>
<line x1="143.2" y1="150.0" x2="143.2" y2="146.0" stroke="#1c2b36" stroke-width="0.8"/>
<line x1="177.2" y1="150.0" x2="177.2" y2="146.0" stroke="#1c2b36" stroke-width="0.8"/>
<line x1="223.3" y1="150.0" x2="223.3" y2="146.0" stroke="#1c2b36" stroke-width="0.8"/>
<line x1="250.3" y1="150.0" x2="250.3" y2="146.0" stroke="#1c2b36" stroke-width="0.8"/>
<line x1="269.5" y1="150.0" x2="269.5" y2="146.0" stroke="#1c2b36" stroke-width="0.8"/>
<line x1="296.5" y1="150.0" x2="296.5" y2="146.0" stroke="#1c2b36" stroke-width="0.8"/>
<line x1="330.5" y1="150.0" x2="330.5" y2="146.0" stroke="#1c2b36" stroke-width="0.8"/>
<line x1="376.7" y1="150.0" x2="376.7" y2="146.0" stroke="#1c2b36" stroke-width="0.8"/>
<line x1="403.7" y1="150.0" x2="403.7" y2="146.0" stroke="#1c2b36" stroke-width="0.8"/>
<line x1="422.8" y1="150.0" x2="422.8" y2="146.0" stroke="#1c2b36" stroke-width="0.8"/>
<line x1="449.8" y1="150.0" x2="449.8" y2="146.0" stroke="#1c2b36" stroke-width="0.8"/>
<line x1="483.8" y1="150.0" x2="483.8" y2="146.0" stroke="#1c2b36" stroke-width="0.8"/>
<line x1="530.0" y1="150.0" x2="530.0" y2="146.0" stroke="#1c2b36" stroke-width="0.8"/>
<path d="M70.0,295.0 L70.0,185.0 L140.1,185.0 L143.2,185.3 L144.8,186.3 L145.7,188.1 L146.5,191.2 L147.6,201.3 L150.9,271.1 L152.4,288.2 L153.4,292.1 L154.9,294.3 L157.2,294.9 L163.5,295.0 L169.3,294.9 L172.2,294.3 L174.5,292.8 L179.6,288.2 L182.9,286.6 L186.3,286.2 L195.7,286.6 L196.5,286.3 L197.3,284.3 L198.4,278.9 L199.8,277.2 L201.3,269.2 L201.9,270.6 L203.2,279.0 L205.1,250.0 L206.7,282.4 L207.2,286.4 L208.0,281.8 L209.5,264.3 L210.1,262.0 L210.9,265.8 L212.8,287.3 L213.4,290.5 L213.8,291.3 L214.1,291.3 L215.5,285.3 L218.2,256.0 L218.7,252.1 L219.3,251.0 L220.3,256.0 L222.8,283.4 L223.5,288.0 L224.3,289.3 L225.2,285.7 L226.0,278.1 L228.5,233.4 L229.1,226.2 L229.7,223.5 L230.6,230.0 L232.9,272.1 L234.1,286.1 L234.8,291.0 L235.8,293.8 L237.1,294.8 L238.7,294.5 L239.6,290.8 L240.4,280.3 L243.3,193.7 L244.0,186.1 L244.4,185.1 L245.0,185.0 L245.8,187.4 L246.5,198.0 L248.6,266.7 L249.6,287.2 L250.2,292.3 L250.7,294.3 L251.7,295.0 L254.6,295.0 L257.8,295.0 L258.8,294.6 L259.6,292.7 L260.1,288.1 L261.1,268.9 L263.2,199.6 L264.0,188.0 L264.7,185.1 L265.5,185.3 L265.9,186.7 L266.6,195.8 L269.1,274.3 L270.3,291.7 L270.9,294.1 L271.6,294.9 L280.1,295.0 L282.2,294.9 L282.9,294.1 L284.1,287.7 L285.1,270.5 L287.5,198.0 L288.3,188.0 L288.7,185.9 L289.3,185.0 L290.0,185.3 L290.4,186.6 L291.2,193.9 L293.5,251.9 L294.4,265.4 L294.8,265.8 L295.6,260.0 L299.0,198.8 L300.0,188.0 L300.8,185.0 L301.3,186.5 L302.1,193.0 L305.4,242.8 L307.5,262.1 L308.6,267.5 L309.8,270.5 L311.1,272.2 L313.8,273.2 L314.8,274.0 L317.2,279.6 L318.0,263.1 L319.2,197.0 L319.5,188.1 L320.1,185.1 L320.7,185.0 L321.1,185.7 L321.7,193.5 L323.0,260.5 L323.6,267.9 L326.3,236.7 L327.0,231.0 L327.8,229.0 L328.4,230.1 L328.9,233.3 L331.6,260.4 L332.8,265.7 L333.5,264.3 L334.7,254.9 L337.8,213.9 L339.3,198.7 L341.2,188.7 L342.2,186.5 L343.5,185.3 L347.0,185.0 L348.7,185.5 L350.0,187.2 L351.0,190.0 L352.7,200.3 L355.6,231.9 L356.3,235.8 L357.1,229.5 L358.7,191.7 L359.2,185.0 L359.4,185.5 L360.9,219.2 L361.5,225.0 L363.4,202.6 L363.8,204.6 L365.9,249.8 L366.7,258.7 L367.5,261.2 L368.0,260.5 L368.6,258.4 L369.8,249.8 L372.8,200.4 L373.4,194.2 L374.0,192.2 L374.6,194.7 L375.1,201.3 L377.6,241.5 L379.2,252.9 L379.9,254.9 L380.9,255.9 L386.4,256.5 L390.5,258.6 L391.2,258.2 L392.0,256.6 L393.3,249.2 L397.0,207.3 L398.5,194.0 L399.9,187.9 L400.6,186.2 L401.6,185.3 L405.4,185.1 L407.1,186.6 L408.7,190.7 L411.4,201.4 L412.1,203.4 L412.9,204.1 L414.0,203.1 L417.1,195.7 L419.2,192.6 L422.1,190.8 L428.6,188.7 L432.2,188.9 L438.0,191.6 L440.5,192.1 L443.0,191.5 L448.7,188.6 L452.4,187.3 L457.0,186.3 L462.5,185.6 L479.2,185.1 L530.0,185.0 L530.0,295.0 Z" fill="#2569a8" stroke="none" stroke-width="0" stroke-linejoin="round" stroke-linecap="round" fill-opacity="0.13"/>
<path d="M70.0,185.0 L140.1,185.0 L143.2,185.3 L144.8,186.3 L145.7,188.1 L146.5,191.2 L147.6,201.3 L150.9,271.1 L152.4,288.2 L153.4,292.1 L154.9,294.3 L157.2,294.9 L163.5,295.0 L169.3,294.9 L172.2,294.3 L174.5,292.8 L179.6,288.2 L182.9,286.6 L186.3,286.2 L195.7,286.6 L196.5,286.3 L197.3,284.3 L198.4,278.9 L199.8,277.2 L201.3,269.2 L201.9,270.6 L203.2,279.0 L205.1,250.0 L206.7,282.4 L207.2,286.4 L208.0,281.8 L209.5,264.3 L210.1,262.0 L210.9,265.8 L212.8,287.3 L213.4,290.5 L213.8,291.3 L214.1,291.3 L215.5,285.3 L218.2,256.0 L218.7,252.1 L219.3,251.0 L220.3,256.0 L222.8,283.4 L223.5,288.0 L224.3,289.3 L225.2,285.7 L226.0,278.1 L228.5,233.4 L229.1,226.2 L229.7,223.5 L230.6,230.0 L232.9,272.1 L234.1,286.1 L234.8,291.0 L235.8,293.8 L237.1,294.8 L238.7,294.5 L239.6,290.8 L240.4,280.3 L243.3,193.7 L244.0,186.1 L244.4,185.1 L245.0,185.0 L245.8,187.4 L246.5,198.0 L248.6,266.7 L249.6,287.2 L250.2,292.3 L250.7,294.3 L251.7,295.0 L254.6,295.0 L257.8,295.0 L258.8,294.6 L259.6,292.7 L260.1,288.1 L261.1,268.9 L263.2,199.6 L264.0,188.0 L264.7,185.1 L265.5,185.3 L265.9,186.7 L266.6,195.8 L269.1,274.3 L270.3,291.7 L270.9,294.1 L271.6,294.9 L280.1,295.0 L282.2,294.9 L282.9,294.1 L284.1,287.7 L285.1,270.5 L287.5,198.0 L288.3,188.0 L288.7,185.9 L289.3,185.0 L290.0,185.3 L290.4,186.6 L291.2,193.9 L293.5,251.9 L294.4,265.4 L294.8,265.8 L295.6,260.0 L299.0,198.8 L300.0,188.0 L300.8,185.0 L301.3,186.5 L302.1,193.0 L305.4,242.8 L307.5,262.1 L308.6,267.5 L309.8,270.5 L311.1,272.2 L313.8,273.2 L314.8,274.0 L317.2,279.6 L318.0,263.1 L319.2,197.0 L319.5,188.1 L320.1,185.1 L320.7,185.0 L321.1,185.7 L321.7,193.5 L323.0,260.5 L323.6,267.9 L326.3,236.7 L327.0,231.0 L327.8,229.0 L328.4,230.1 L328.9,233.3 L331.6,260.4 L332.8,265.7 L333.5,264.3 L334.7,254.9 L337.8,213.9 L339.3,198.7 L341.2,188.7 L342.2,186.5 L343.5,185.3 L347.0,185.0 L348.7,185.5 L350.0,187.2 L351.0,190.0 L352.7,200.3 L355.6,231.9 L356.3,235.8 L357.1,229.5 L358.7,191.7 L359.2,185.0 L359.4,185.5 L360.9,219.2 L361.5,225.0 L363.4,202.6 L363.8,204.6 L365.9,249.8 L366.7,258.7 L367.5,261.2 L368.0,260.5 L368.6,258.4 L369.8,249.8 L372.8,200.4 L373.4,194.2 L374.0,192.2 L374.6,194.7 L375.1,201.3 L377.6,241.5 L379.2,252.9 L379.9,254.9 L380.9,255.9 L386.4,256.5 L390.5,258.6 L391.2,258.2 L392.0,256.6 L393.3,249.2 L397.0,207.3 L398.5,194.0 L399.9,187.9 L400.6,186.2 L401.6,185.3 L405.4,185.1 L407.1,186.6 L408.7,190.7 L411.4,201.4 L412.1,203.4 L412.9,204.1 L414.0,203.1 L417.1,195.7 L419.2,192.6 L422.1,190.8 L428.6,188.7 L432.2,188.9 L438.0,191.6 L440.5,192.1 L443.0,191.5 L448.7,188.6 L452.4,187.3 L457.0,186.3 L462.5,185.6 L479.2,185.1 L530.0,185.0" fill="none" stroke="#1c2b36" stroke-width="1.4" stroke-linejoin="round" stroke-linecap="round"/>
<rect x="70" y="185" width="460" height="110" fill="none" stroke="#1c2b36" stroke-width="1.1"/>
<line x1="66.0" y1="295.0" x2="70.0" y2="295.0" stroke="#1c2b36" stroke-width="1"/>
<text x="63.0" y="298.5" font-family="sans-serif" font-size="10" fill="#1c2b36" text-anchor="end">0</text>
<line x1="66.0" y1="273.0" x2="70.0" y2="273.0" stroke="#1c2b36" stroke-width="1"/>
<text x="63.0" y="276.5" font-family="sans-serif" font-size="10" fill="#1c2b36" text-anchor="end">20</text>
<line x1="66.0" y1="251.0" x2="70.0" y2="251.0" stroke="#1c2b36" stroke-width="1"/>
<text x="63.0" y="254.5" font-family="sans-serif" font-size="10" fill="#1c2b36" text-anchor="end">40</text>
<line x1="66.0" y1="229.0" x2="70.0" y2="229.0" stroke="#1c2b36" stroke-width="1"/>
<text x="63.0" y="232.5" font-family="sans-serif" font-size="10" fill="#1c2b36" text-anchor="end">60</text>
<line x1="66.0" y1="207.0" x2="70.0" y2="207.0" stroke="#1c2b36" stroke-width="1"/>
<text x="63.0" y="210.5" font-family="sans-serif" font-size="10" fill="#1c2b36" text-anchor="end">80</text>
<line x1="66.0" y1="185.0" x2="70.0" y2="185.0" stroke="#1c2b36" stroke-width="1"/>
<text x="63.0" y="188.5" font-family="sans-serif" font-size="10" fill="#1c2b36" text-anchor="end">100</text>
<text x="30.0" y="240.0" font-family="sans-serif" font-size="11" fill="#1c2b36" text-anchor="middle" transform="rotate(-90 30.0 240.0)">吸収率 (%)</text>
<text x="70.0" y="176.0" font-family="sans-serif" font-size="14" fill="#1c2b36" font-weight="bold">図B</text>
<line x1="70.0" y1="295.0" x2="70.0" y2="291.0" stroke="#1c2b36" stroke-width="0.8"/>
<line x1="97.0" y1="295.0" x2="97.0" y2="291.0" stroke="#1c2b36" stroke-width="0.8"/>
<line x1="116.2" y1="295.0" x2="116.2" y2="291.0" stroke="#1c2b36" stroke-width="0.8"/>
<line x1="143.2" y1="295.0" x2="143.2" y2="291.0" stroke="#1c2b36" stroke-width="0.8"/>
<line x1="177.2" y1="295.0" x2="177.2" y2="291.0" stroke="#1c2b36" stroke-width="0.8"/>
<line x1="223.3" y1="295.0" x2="223.3" y2="291.0" stroke="#1c2b36" stroke-width="0.8"/>
<line x1="250.3" y1="295.0" x2="250.3" y2="291.0" stroke="#1c2b36" stroke-width="0.8"/>
<line x1="269.5" y1="295.0" x2="269.5" y2="291.0" stroke="#1c2b36" stroke-width="0.8"/>
<line x1="296.5" y1="295.0" x2="296.5" y2="291.0" stroke="#1c2b36" stroke-width="0.8"/>
<line x1="330.5" y1="295.0" x2="330.5" y2="291.0" stroke="#1c2b36" stroke-width="0.8"/>
<line x1="376.7" y1="295.0" x2="376.7" y2="291.0" stroke="#1c2b36" stroke-width="0.8"/>
<line x1="403.7" y1="295.0" x2="403.7" y2="291.0" stroke="#1c2b36" stroke-width="0.8"/>
<line x1="422.8" y1="295.0" x2="422.8" y2="291.0" stroke="#1c2b36" stroke-width="0.8"/>
<line x1="449.8" y1="295.0" x2="449.8" y2="291.0" stroke="#1c2b36" stroke-width="0.8"/>
<line x1="483.8" y1="295.0" x2="483.8" y2="291.0" stroke="#1c2b36" stroke-width="0.8"/>
<line x1="530.0" y1="295.0" x2="530.0" y2="291.0" stroke="#1c2b36" stroke-width="0.8"/>
<line x1="70.0" y1="320.0" x2="530.0" y2="320.0" stroke="#1c2b36" stroke-width="1.2"/>
<line x1="70.0" y1="315.0" x2="70.0" y2="325.0" stroke="#1c2b36" stroke-width="1"/>
<text x="70.0" y="338.0" font-family="sans-serif" font-size="9.5" fill="#1c2b36" text-anchor="middle">0.1</text>
<line x1="97.0" y1="315.0" x2="97.0" y2="325.0" stroke="#1c2b36" stroke-width="1"/>
<text x="97.0" y="338.0" font-family="sans-serif" font-size="9.5" fill="#1c2b36" text-anchor="middle">0.15</text>
<line x1="116.2" y1="315.0" x2="116.2" y2="325.0" stroke="#1c2b36" stroke-width="1"/>
<text x="116.2" y="338.0" font-family="sans-serif" font-size="9.5" fill="#1c2b36" text-anchor="middle">0.2</text>
<line x1="143.2" y1="315.0" x2="143.2" y2="325.0" stroke="#1c2b36" stroke-width="1"/>
<text x="143.2" y="338.0" font-family="sans-serif" font-size="9.5" fill="#1c2b36" text-anchor="middle">0.3</text>
<line x1="177.2" y1="315.0" x2="177.2" y2="325.0" stroke="#1c2b36" stroke-width="1"/>
<text x="177.2" y="338.0" font-family="sans-serif" font-size="9.5" fill="#1c2b36" text-anchor="middle">0.5</text>
<line x1="223.3" y1="315.0" x2="223.3" y2="325.0" stroke="#1c2b36" stroke-width="1"/>
<text x="223.3" y="338.0" font-family="sans-serif" font-size="9.5" fill="#1c2b36" text-anchor="middle">1</text>
<line x1="250.3" y1="315.0" x2="250.3" y2="325.0" stroke="#1c2b36" stroke-width="1"/>
<text x="250.3" y="338.0" font-family="sans-serif" font-size="9.5" fill="#1c2b36" text-anchor="middle">1.5</text>
<line x1="269.5" y1="315.0" x2="269.5" y2="325.0" stroke="#1c2b36" stroke-width="1"/>
<text x="269.5" y="338.0" font-family="sans-serif" font-size="9.5" fill="#1c2b36" text-anchor="middle">2</text>
<line x1="296.5" y1="315.0" x2="296.5" y2="325.0" stroke="#1c2b36" stroke-width="1"/>
<text x="296.5" y="338.0" font-family="sans-serif" font-size="9.5" fill="#1c2b36" text-anchor="middle">3</text>
<line x1="330.5" y1="315.0" x2="330.5" y2="325.0" stroke="#1c2b36" stroke-width="1"/>
<text x="330.5" y="338.0" font-family="sans-serif" font-size="9.5" fill="#1c2b36" text-anchor="middle">5</text>
<line x1="376.7" y1="315.0" x2="376.7" y2="325.0" stroke="#1c2b36" stroke-width="1"/>
<text x="376.7" y="338.0" font-family="sans-serif" font-size="9.5" fill="#1c2b36" text-anchor="middle">10</text>
<line x1="403.7" y1="315.0" x2="403.7" y2="325.0" stroke="#1c2b36" stroke-width="1"/>
<text x="403.7" y="338.0" font-family="sans-serif" font-size="9.5" fill="#1c2b36" text-anchor="middle">15</text>
<line x1="422.8" y1="315.0" x2="422.8" y2="325.0" stroke="#1c2b36" stroke-width="1"/>
<text x="422.8" y="338.0" font-family="sans-serif" font-size="9.5" fill="#1c2b36" text-anchor="middle">20</text>
<line x1="449.8" y1="315.0" x2="449.8" y2="325.0" stroke="#1c2b36" stroke-width="1"/>
<text x="449.8" y="338.0" font-family="sans-serif" font-size="9.5" fill="#1c2b36" text-anchor="middle">30</text>
<line x1="483.8" y1="315.0" x2="483.8" y2="325.0" stroke="#1c2b36" stroke-width="1"/>
<text x="483.8" y="338.0" font-family="sans-serif" font-size="9.5" fill="#1c2b36" text-anchor="middle">50</text>
<line x1="530.0" y1="315.0" x2="530.0" y2="325.0" stroke="#1c2b36" stroke-width="1"/>
<text x="530.0" y="338.0" font-family="sans-serif" font-size="9.5" fill="#1c2b36" text-anchor="middle">100</text>
<text x="62.0" y="324.0" font-family="sans-serif" font-size="11" fill="#1c2b36" text-anchor="end">波長 (μm)</text>
<defs><marker id="ah" markerUnits="userSpaceOnUse" markerWidth="8" markerHeight="8" refX="7" refY="4" orient="auto-start-reverse"><path d="M0,0 L8,4 L0,8 Z" fill="#1c2b36"/></marker></defs>
<text x="8.0" y="392.0" font-family="sans-serif" font-size="11" fill="#1c2b36">主な吸収体</text>
<line x1="71.0" y1="370.0" x2="115.2" y2="370.0" stroke="#1c2b36" stroke-width="1.2" marker-end="url(#ah)" marker-start="url(#ah)"/>
<line x1="70.0" y1="365.0" x2="70.0" y2="375.0" stroke="#1c2b36" stroke-width="1"/>
<line x1="116.2" y1="365.0" x2="116.2" y2="375.0" stroke="#1c2b36" stroke-width="1"/>
<text x="93.1" y="392.0" font-family="sans-serif" font-size="11" fill="#1c2b36" text-anchor="middle">O₂</text>
<line x1="117.2" y1="370.0" x2="193.6" y2="370.0" stroke="#1c2b36" stroke-width="1.2" marker-end="url(#ah)" marker-start="url(#ah)"/>
<line x1="116.2" y1="365.0" x2="116.2" y2="375.0" stroke="#1c2b36" stroke-width="1"/>
<line x1="194.6" y1="365.0" x2="194.6" y2="375.0" stroke="#1c2b36" stroke-width="1"/>
<text x="155.4" y="392.0" font-family="sans-serif" font-size="11" fill="#1c2b36" text-anchor="middle">O₃</text>
<line x1="205.1" y1="378.0" x2="205.1" y2="364.0" stroke="#1c2b36" stroke-width="1.4" marker-end="url(#ah)"/>
<text x="205.1" y="392.0" font-family="sans-serif" font-size="11" fill="#1c2b36" text-anchor="middle">O₂</text>
<line x1="219.2" y1="378.0" x2="219.2" y2="364.0" stroke="#1c2b36" stroke-width="1.4" marker-end="url(#ah)"/>
<line x1="229.7" y1="378.0" x2="229.7" y2="364.0" stroke="#1c2b36" stroke-width="1.4" marker-end="url(#ah)"/>
<line x1="244.8" y1="378.0" x2="244.8" y2="364.0" stroke="#1c2b36" stroke-width="1.4" marker-end="url(#ah)"/>
<line x1="265.0" y1="378.0" x2="265.0" y2="364.0" stroke="#1c2b36" stroke-width="1.4" marker-end="url(#ah)"/>
<path d="M216.3,380.0 L216.3,384.0 L269.5,384.0 L269.5,380.0" fill="none" stroke="#1c2b36" stroke-width="1"/>
<text x="242.9" y="392.0" font-family="sans-serif" font-size="11" fill="#1c2b36" text-anchor="middle">H₂O</text>
<line x1="289.5" y1="378.0" x2="289.5" y2="364.0" stroke="#1c2b36" stroke-width="1.4" marker-end="url(#ah)"/>
<text x="289.5" y="408.0" font-family="sans-serif" font-size="11" fill="#1c2b36" text-anchor="middle">CO₂</text>
<line x1="302.8" y1="378.0" x2="302.8" y2="364.0" stroke="#1c2b36" stroke-width="1.4" marker-end="url(#ah)"/>
<text x="302.8" y="392.0" font-family="sans-serif" font-size="11" fill="#1c2b36" text-anchor="middle">CH₄</text>
<line x1="320.5" y1="378.0" x2="320.5" y2="364.0" stroke="#1c2b36" stroke-width="1.4" marker-end="url(#ah)"/>
<text x="320.5" y="408.0" font-family="sans-serif" font-size="11" fill="#1c2b36" text-anchor="middle">CO₂</text>
<line x1="345.9" y1="378.0" x2="345.9" y2="364.0" stroke="#1c2b36" stroke-width="1.4" marker-end="url(#ah)"/>
<text x="345.9" y="392.0" font-family="sans-serif" font-size="11" fill="#1c2b36" text-anchor="middle">H₂O</text>
<line x1="359.3" y1="378.0" x2="359.3" y2="364.0" stroke="#1c2b36" stroke-width="1.4" marker-end="url(#ah)"/>
<text x="359.3" y="408.0" font-family="sans-serif" font-size="11" fill="#1c2b36" text-anchor="middle">CH₄</text>
<text x="359.3" y="421.0" font-family="sans-serif" font-size="11" fill="#1c2b36" text-anchor="middle">N₂O</text>
<line x1="373.9" y1="378.0" x2="373.9" y2="364.0" stroke="#1c2b36" stroke-width="1.4" marker-end="url(#ah)"/>
<text x="373.9" y="392.0" font-family="sans-serif" font-size="11" fill="#1c2b36" text-anchor="middle">O₃</text>
<line x1="403.7" y1="378.0" x2="403.7" y2="364.0" stroke="#1c2b36" stroke-width="1.4" marker-end="url(#ah)"/>
<text x="403.7" y="408.0" font-family="sans-serif" font-size="11" fill="#1c2b36" text-anchor="middle">CO₂</text>
<line x1="422.8" y1="370.0" x2="529.0" y2="370.0" stroke="#1c2b36" stroke-width="1.2" marker-end="url(#ah)"/>
<line x1="422.8" y1="365.0" x2="422.8" y2="375.0" stroke="#1c2b36" stroke-width="1"/>
<text x="476.4" y="392.0" font-family="sans-serif" font-size="11" fill="#1c2b36" text-anchor="middle">H₂O (回転)</text>
</svg>